# xmcd
#
# Track frame offsets:
#	150
#	13245
#	26087
#	36777
#	49847
#	66120
#	83979
#	98995
#	122875
#	137100
#	153385
#	175392
#	187817
#	204967
#	215050
#	228115
#	246625
#	262610
#	273250
#	285660
#
# Disc length: 4007 seconds
#
# Revision: 2
# Processed by: cddbd v1.5.2PL0 Copyright (c) Steve Scherf et al.
# Submitted via: audiograbber 1.83.01
#
DISCID=200fa514
DTITLE=Various Artist - GoldDisc 1821
DYEAR=1900
DGENRE=Country
TTITLE0=T. Graham Brown - Brilliant Conversationalist
TTITLE1=Lynn Anderson - Rose Garden
TTITLE2=Buck Owens - Act Naturally
TTITLE3=Juice Newton - Stuck In The Middle With You
TTITLE4=Vince Gill - Never Alone
TTITLE5=Alabama - Gonna Have A Party
TTITLE6=Willie Nelson - South Of The Border
TTITLE7=David Allan Coe - You Never Even Called Me By My Name
TTITLE8=Patsy Montana and The Prairie Ramblers - I Want To Be A Cowboy's Sweethea
TTITLE8=rt
TTITLE9=Holly Dunn - When No Place Is Home
TTITLE10=Nitty Gritty Dirt Band - Will The Circle Be Unbroken
TTITLE11=Roy Clark - Tips Of My Fingers
TTITLE12=Kentucky Headhunters - Walk Softly On This Heart Of Mine
TTITLE13=Johnny Cash - Ballad Of A Teenage Queen
TTITLE14=Patsy Cline - Someday (You'll Want Me To Want You)
TTITLE15=Asleep At The Wheel - San Antonio Rose
TTITLE16=Michael Martin Murphy - Home On The Range
TTITLE17=Moe Bandy and Joe Stampley - Hey Joe (Hey Moe)
TTITLE18=Hank Willias - You're Cheatin' Heart
TTITLE19=Merle Haggard - A Friend In California
EXTD=
EXTT0=
EXTT1=
EXTT2=
EXTT3=
EXTT4=
EXTT5=
EXTT6=
EXTT7=
EXTT8=
EXTT9=
EXTT10=
EXTT11=
EXTT12=
EXTT13=
EXTT14=
EXTT15=
EXTT16=
EXTT17=
EXTT18=
EXTT19=
PLAYORDER=
